<?xml version="1.0" encoding="UTF-8" standalone="no"?>
<svg
        xmlns:dc="http://purl.org/dc/elements/1.1/"
        xmlns:cc="http://creativecommons.org/ns#"
        xmlns:rdf="http://www.w3.org/1999/02/22-rdf-syntax-ns#"
        xmlns="http://www.w3.org/2000/svg"
        xmlns:xlink="http://www.w3.org/1999/xlink"
        xmlns:sodipodi="http://sodipodi.sourceforge.net/DTD/sodipodi-0.dtd"
        xmlns:inkscape="http://www.inkscape.org/namespaces/inkscape"
        version="1.1"
        preserveAspectRatio="xMidYMid meet"
        viewBox="465.65606 -0.36334761 3943.4846 764.2118"
        width="3938.0789"
        height="753.20477"
        id="svg1122"
        sodipodi:docname="antares-logo.svg"
        inkscape:version="0.92.4 (5da689c313, 2019-01-14)">
  <metadata
     id="metadata1126">
    <rdf:RDF>
      <cc:Work
         rdf:about="">
        <dc:format>image/svg+xml</dc:format>
        <dc:type
           rdf:resource="http://purl.org/dc/dcmitype/StillImage" />
        <dc:title></dc:title>
      </cc:Work>
    </rdf:RDF>
  </metadata>
  <sodipodi:namedview
     pagecolor="#ffffff"
     bordercolor="#666666"
     borderopacity="1"
     objecttolerance="10"
     gridtolerance="10"
     guidetolerance="10"
     inkscape:pageopacity="0"
     inkscape:pageshadow="2"
     inkscape:window-width="1714"
     inkscape:window-height="1415"
     id="namedview1124"
     showgrid="false"
     inkscape:zoom="0.17731118"
     inkscape:cx="2732.0253"
     inkscape:cy="1012.9625"
     inkscape:window-x="1920"
     inkscape:window-y="0"
     inkscape:window-maximized="0"
     inkscape:current-layer="svg1122" />
  <defs
     id="defs1062">
    <path
       d="m 714.29,0.91 4.59,0.34 4.43,0.46 4.27,0.58 4.12,0.68 3.97,0.78 3.82,0.88 3.68,0.96 3.52,1.04 3.39,1.12 3.24,1.18 3.1,1.23 2.96,1.29 2.83,1.33 2.69,1.37 2.56,1.39 2.43,1.42 2.3,1.43 2.17,1.44 2.05,1.43 1.93,1.44 1.8,1.41 1.69,1.4 1.57,1.36 1.45,1.33 1.34,1.29 1.23,1.24 1.12,1.18 1.02,1.11 0.9,1.04 0.81,0.96 0.7,0.88 0.6,0.78 0.5,0.69 0.41,0.57 0.32,0.46 0.22,0.34 0.13,0.21 0.04,0.07 140.75,230.3 H 809.55 l -29.5,-53.3 -158.35,1.35 -32.22,54.51 -122.82,-5.12 150.97,-227.74 1.28,-0.62 1.23,-0.7 1.2,-0.78 1.16,-0.84 1.13,-0.92 1.12,-0.97 1.12,-1.03 1.1,-1.08 1.11,-1.13 1.13,-1.17 1.14,-1.2 1.17,-1.24 1.2,-1.26 1.25,-1.28 1.29,-1.3 1.35,-1.31 1.41,-1.31 1.48,-1.32 1.56,-1.31 1.65,-1.3 1.73,-1.29 1.84,-1.27 1.94,-1.24 2.06,-1.21 2.18,-1.18 2.3,-1.14 2.44,-1.1 2.59,-1.04 2.73,-0.99 2.9,-0.94 3.06,-0.86 3.23,-0.8 3.41,-0.72 3.59,-0.64 3.8,-0.56 3.99,-0.47 4.2,-0.37 4.42,-0.27 4.64,-0.17 4.87,-0.05 4.91,0.07 z m 28.13,155.51 -45.69,-74.19 -39.36,74.19 z"
       id="gc0Wd1dVk"
       inkscape:connector-curvature="0" />
    <path
       d="m 959.24,266.76 c 0.77,-126.67 1.2,-197.03 1.28,-211.11 0,0 11.52,-53.73 94.68,-52.45 83.16,1.27 102.36,40.94 102.36,40.94 5.03,9.64 30.19,57.83 75.48,144.57 l -1.28,-180.4 110.67,-0.64 c 0.39,135.5 0.6,210.77 0.64,225.82 0,0 -22.39,43.03 -111.31,40.95 -101.69,-2.39 -162.49,-226.55 -161.21,-170.81 0.26,11.13 1.54,66.79 3.84,166.97 z"
       id="c2WzjnK3T"
       inkscape:connector-curvature="0" />
    <path
       d="m 1378.9,7.03 h 336.49 l 3.84,61.42 H 1609.2 l 1.28,200.87 h -120.27 l -2.56,-200.87 -107.47,-1.28 z"
       id="ddeB45Spc"
       inkscape:connector-curvature="0" />
    <path
       d="m 2215.65,270.6 1.28,-262.29 c 191.14,-0.76 297.34,-1.19 318.58,-1.28 0,0 54.11,3.86 56.29,78.05 2.56,87 -112.59,84.44 -112.59,84.44 7.51,6.65 45.04,39.92 112.59,99.8 l -142.02,-1.28 c -66.78,-56.81 -103.89,-88.37 -111.31,-94.68 0,0 -21.75,-47.34 26.87,-51.18 48.62,-3.84 95.96,-5.12 95.96,-5.12 0,0 15.35,-3.83 14.07,-24.3 -1.28,-20.48 -21.75,-26.87 -21.75,-26.87 -8.19,0.08 -49.13,0.51 -122.82,1.28 l 3.84,205.99 z"
       id="aLFdnazff"
       inkscape:connector-curvature="0" />
    <path
       d="m 2988.43,8.31 c -167.35,0 -260.33,0 -278.92,0 0,0 -61.71,12.64 -63.97,47.34 -2.08,31.92 2.56,176.56 2.56,176.56 0,0 16.63,39.67 72.92,40.95 56.3,1.28 269.97,-5.12 269.97,-5.12 0.08,-3.67 0.51,-22.01 1.27,-55.02 -119.75,0 -186.28,0 -199.59,0 0,0 -28.3,-0.37 -29.42,-42.22 15.01,-0.25 90.07,-1.53 225.18,-3.84 l 1.28,-55.01 -229.02,-1.28 c -0.23,-16.57 -0.35,-25.78 -0.38,-27.62 0,0 2.64,-15.88 29.8,-15.88 13.4,0 80.35,0 200.88,0 z"
       id="b13reSMXp"
       inkscape:connector-curvature="0" />
    <path
       d="m 3377.9,8.54 c -165.17,0.82 -256.93,1.28 -275.28,1.37 -10.35,0.11 -58.54,16.01 -58.86,39.66 -0.28,21.38 -20.79,114.83 70.05,117.39 90.84,2.56 134.34,1.92 134.34,1.92 0,0 22.07,2.24 19.51,20.15 -2.56,17.92 -23.35,20.79 -23.35,20.79 -13.22,-0.04 -79.32,-0.25 -198.31,-0.64 l -1.28,61.42 c 158.52,-0.58 246.59,-0.9 264.2,-0.96 19.52,-0.32 60.91,-9.75 71.33,-34.55 6.08,-14.44 2.88,-66.1 1.6,-90.84 -5.01,-23.24 -37.57,-29.32 -60.13,-33.26 -34.94,-6.11 -133.7,-2.88 -133.7,-2.88 0,0 -21.75,3.84 -24.31,-10.24 -2.56,-14.07 -2.56,-30.7 11.51,-30.7 14.08,0 202.15,-1.28 202.15,-1.28 0.07,-7.65 0.25,-26.77 0.53,-57.35 z"
       id="e1cp9IEmdQ"
       inkscape:connector-curvature="0" />
    <path
       d="m 1965.15,2.19 4.58,0.34 4.43,0.46 4.28,0.57 4.12,0.69 3.97,0.78 3.82,0.88 3.67,0.96 3.53,1.04 3.38,1.12 3.24,1.17 3.11,1.24 2.96,1.29 2.82,1.33 2.7,1.36 2.56,1.4 2.42,1.42 2.31,1.43 2.17,1.43 2.05,1.44 1.92,1.43 1.81,1.42 1.69,1.39 1.57,1.37 1.45,1.33 1.34,1.29 1.23,1.23 1.12,1.18 1.01,1.12 0.91,1.04 0.8,0.96 0.71,0.88 0.6,0.78 0.5,0.68 0.41,0.58 0.31,0.46 0.23,0.34 0.13,0.2 0.04,0.07 140.74,230.31 h -125.38 l -29.51,-53.31 -158.35,1.36 -32.21,54.5 -122.83,-5.11 150.98,-227.75 1.28,-0.61 1.23,-0.7 1.19,-0.78 1.16,-0.85 1.14,-0.91 1.12,-0.97 1.11,-1.03 1.11,-1.09 1.11,-1.12 1.13,-1.17 1.14,-1.21 1.17,-1.23 1.2,-1.26 1.25,-1.28 1.29,-1.3 1.35,-1.31 1.41,-1.32 1.48,-1.31 1.56,-1.31 1.64,-1.3 1.74,-1.29 1.84,-1.27 1.94,-1.24 2.05,-1.22 2.18,-1.18 2.31,-1.14 2.44,-1.09 2.59,-1.05 2.73,-0.99 2.89,-0.93 3.06,-0.86 3.23,-0.8 3.41,-0.72 3.6,-0.64 3.79,-0.56 4,-0.47 4.2,-0.37 4.42,-0.27 4.64,-0.17 4.87,-0.06 4.91,0.08 z m 28.12,155.51 -45.68,-74.19 -39.36,74.19 z"
       id="gPGh54CHZ"
       inkscape:connector-curvature="0" />
    <path
       id="b17rvv3tlp"
       d="m 2880.5,1784.67 c 20.05,23.74 154.31,204.25 154.31,204.25 0,0 16.78,24.96 -2.46,41.75 -19.24,16.78 -39.7,0 -41.34,-1.64 -1.64,-1.64 -138.75,-185.42 -138.75,-185.42 0,0 -13.51,-19.64 -24.97,-19.64 -11.46,0 -22.1,16.37 -22.1,16.37 -14.41,18.82 -129.67,169.41 -144.08,188.23 0,0 -13.64,19.46 -36.92,1.74 -23.98,-18.25 -3.19,-43.44 -3.19,-43.44 50.89,-67.43 149.47,-197.28 153.9,-201.48 20.94,-20.7 37.38,-21.35 51.16,-21.18 10.89,4.09 34.38,-3.27 54.44,20.46 z"
       inkscape:connector-curvature="0" />
    <path
       id="a94BEldzmV"
       d="m 2828.34,2035.83 9.41,-74.9 75.11,-9.42 -75.11,-9.41 -9.62,-75.93 -9,76.13 -75.93,8.8 75.93,10.03 z"
       inkscape:connector-curvature="0" />
  </defs>
  <g
     id="g1120"
     transform="translate(1051.4601,49.862483)"
     style="fill:#ffffff">
    <g
       id="g1070"
       style="fill:#ffffff">
      <use
         xlink:href="#gc0Wd1dVk"
         id="use1064"
         style="opacity:1;fill:#ffffff;fill-opacity:1"
         x="0"
         y="0"
         width="100%"
         height="100%" />
      <g
         id="g1068"
         style="fill:#ffffff">
        <use
           xlink:href="#gc0Wd1dVk"
           id="use1066"
           style="opacity:1;fill:#ffffff;fill-opacity:0;stroke:#000000;stroke-width:1;stroke-opacity:0"
           x="0"
           y="0"
           width="100%"
           height="100%" />
      </g>
    </g>
    <g
       id="g1078"
       style="fill:#ffffff">
      <use
         xlink:href="#c2WzjnK3T"
         id="use1072"
         style="opacity:1;fill:#ffffff;fill-opacity:1"
         x="0"
         y="0"
         width="100%"
         height="100%" />
      <g
         id="g1076"
         style="fill:#ffffff">
        <use
           xlink:href="#c2WzjnK3T"
           id="use1074"
           style="opacity:1;fill:#ffffff;fill-opacity:0;stroke:#000000;stroke-width:1;stroke-opacity:0"
           x="0"
           y="0"
           width="100%"
           height="100%" />
      </g>
    </g>
    <g
       id="g1086"
       style="fill:#ffffff">
      <use
         xlink:href="#ddeB45Spc"
         id="use1080"
         style="opacity:1;fill:#ffffff;fill-opacity:1"
         x="0"
         y="0"
         width="100%"
         height="100%" />
      <g
         id="g1084"
         style="fill:#ffffff">
        <use
           xlink:href="#ddeB45Spc"
           id="use1082"
           style="opacity:1;fill:#ffffff;fill-opacity:0;stroke:#000000;stroke-width:1;stroke-opacity:0"
           x="0"
           y="0"
           width="100%"
           height="100%" />
      </g>
    </g>
    <g
       id="g1094"
       style="fill:#ffffff">
      <use
         xlink:href="#aLFdnazff"
         id="use1088"
         style="opacity:1;fill:#ffffff;fill-opacity:1"
         x="0"
         y="0"
         width="100%"
         height="100%" />
      <g
         id="g1092"
         style="fill:#ffffff">
        <use
           xlink:href="#aLFdnazff"
           id="use1090"
           style="opacity:1;fill:#ffffff;fill-opacity:0;stroke:#000000;stroke-width:1;stroke-opacity:0"
           x="0"
           y="0"
           width="100%"
           height="100%" />
      </g>
    </g>
    <g
       id="g1102"
       style="fill:#ffffff">
      <use
         xlink:href="#b13reSMXp"
         id="use1096"
         style="opacity:1;fill:#ffffff;fill-opacity:1"
         x="0"
         y="0"
         width="100%"
         height="100%" />
      <g
         id="g1100"
         style="fill:#ffffff">
        <use
           xlink:href="#b13reSMXp"
           id="use1098"
           style="opacity:1;fill:#ffffff;fill-opacity:0;stroke:#000000;stroke-width:1;stroke-opacity:0"
           x="0"
           y="0"
           width="100%"
           height="100%" />
      </g>
    </g>
    <g
       id="g1110"
       style="fill:#ffffff">
      <use
         xlink:href="#e1cp9IEmdQ"
         id="use1104"
         style="opacity:1;fill:#ffffff;fill-opacity:1"
         x="0"
         y="0"
         width="100%"
         height="100%" />
      <g
         id="g1108"
         style="fill:#ffffff">
        <use
           xlink:href="#e1cp9IEmdQ"
           id="use1106"
           style="opacity:1;fill:#ffffff;fill-opacity:0;stroke:#000000;stroke-width:1;stroke-opacity:0"
           x="0"
           y="0"
           width="100%"
           height="100%" />
      </g>
    </g>
    <g
       id="g1118"
       style="fill:#ffffff">
      <use
         xlink:href="#gPGh54CHZ"
         id="use1112"
         style="opacity:1;fill:#ffffff;fill-opacity:1"
         x="0"
         y="0"
         width="100%"
         height="100%" />
      <g
         id="g1116"
         style="fill:#ffffff">
        <use
           xlink:href="#gPGh54CHZ"
           id="use1114"
           style="opacity:1;fill:#ffffff;fill-opacity:0;stroke:#000000;stroke-width:1;stroke-opacity:0"
           x="0"
           y="0"
           width="100%"
           height="100%" />
      </g>
    </g>
  </g>
  <g
     id="g1858"
     transform="matrix(2.7903563,0,0,2.7903563,-6850.0163,-4923.0887)"
     style="fill:#ffffff">
    <g
       id="g1848"
       style="fill:#ffffff">
      <use
         id="use1842"
         xlink:href="#b17rvv3tlp"
         style="opacity:1;fill:#ffffff;fill-opacity:1"
         x="0"
         y="0"
         width="100%"
         height="100%" />
      <g
         id="g1846"
         style="fill:#ffffff;stroke:none">
        <use
           id="use1844"
           xlink:href="#b17rvv3tlp"
           style="opacity:1;fill:#ffffff;fill-opacity:0;stroke:none;stroke-width:1;stroke-opacity:1"
           x="0"
           y="0"
           width="100%"
           height="100%" />
      </g>
    </g>
    <g
       id="g1856"
       style="fill:#ffffff">
      <use
         id="use1850"
         xlink:href="#a94BEldzmV"
         style="opacity:1;fill:#ffffff;fill-opacity:1"
         x="0"
         y="0"
         width="100%"
         height="100%" />
      <g
         id="g1854"
         style="fill:#ffffff">
        <use
           id="use1852"
           xlink:href="#a94BEldzmV"
           style="opacity:1;fill:#ffffff;fill-opacity:0;stroke:#000000;stroke-width:1;stroke-opacity:0"
           x="0"
           y="0"
           width="100%"
           height="100%" />
      </g>
    </g>
  </g>
</svg>
