<?xml version="1.0" encoding="UTF-8" standalone="no"?>
<!DOCTYPE svg PUBLIC "-//W3C//DTD SVG 1.1//EN" "http://www.w3.org/Graphics/SVG/1.1/DTD/svg11.dtd">
<svg version="1.1" xmlns="http://www.w3.org/2000/svg" xmlns:xlink="http://www.w3.org/1999/xlink" preserveAspectRatio="xMidYMid meet" viewBox="134.61694989630712 21.6705506932078 432.9477515658606 339.2791454072651" width="428.95" height="338.28"><defs><path d="M403.48 43.15C423.53 66.89 557.78 247.39 557.78 247.39C557.78 247.39 574.57 272.36 555.33 289.14C536.09 305.92 515.63 289.14 513.99 287.51C512.35 285.87 375.24 102.09 375.24 102.09C375.24 102.09 361.73 82.45 350.27 82.45C338.81 82.45 328.17 98.82 328.17 98.82C313.76 117.64 198.5 268.23 184.09 287.05C184.09 287.05 170.44 306.5 147.16 288.78C123.19 270.54 143.98 245.35 143.98 245.35C194.87 177.92 293.44 48.06 297.88 43.87C318.82 23.17 335.26 22.52 349.04 22.69C359.93 26.78 383.42 19.41 403.48 43.15Z" id="a2kg3ZKaC"></path><path d="M351.31 294.31L360.73 219.41L435.83 209.99L360.73 200.58L351.11 124.65L342.1 200.78L266.18 209.58L342.1 219.61L351.31 294.31Z" id="a9rUiy9PHg"></path><path d="M172.14 320.73L172.86 320.78L173.56 320.86L174.23 320.96L174.88 321.08L175.5 321.21L176.09 321.36L176.66 321.52L177.2 321.69L177.72 321.88L178.21 322.07L178.68 322.28L179.13 322.49L179.55 322.71L179.96 322.93L180.33 323.16L180.69 323.39L181.03 323.62L181.34 323.84L181.64 324.07L181.91 324.29L182.16 324.51L182.39 324.72L182.61 324.93L182.8 325.12L182.98 325.31L183.13 325.48L183.27 325.65L183.39 325.79L183.5 325.93L183.59 326.04L183.66 326.14L183.71 326.22L183.75 326.27L183.77 326.31L183.78 326.32L204.47 360.19L186.04 360.19L181.7 352.35L158.41 352.55L153.68 360.56L135.62 359.81L157.82 326.32L158.02 326.22L158.21 326.11L158.4 325.99L158.59 325.85L158.77 325.7L158.94 325.54L159.12 325.37L159.3 325.2L159.47 325.01L159.65 324.82L159.84 324.63L160.03 324.43L160.23 324.22L160.44 324.01L160.65 323.81L160.88 323.6L161.12 323.39L161.37 323.18L161.64 322.97L161.93 322.77L162.23 322.57L162.55 322.38L162.89 322.19L163.26 322.01L163.65 321.83L164.06 321.67L164.5 321.51L164.96 321.37L165.46 321.23L165.98 321.11L166.54 321L167.13 320.91L167.75 320.83L168.41 320.76L169.1 320.72L169.84 320.69L170.61 320.68L171.39 320.69L172.14 320.73ZM176.17 343.59L169.45 332.68L163.66 343.59L176.17 343.59Z" id="bwDQEpHG9"></path><path d="M208.05 359.81C208.16 341.19 208.22 330.84 208.24 328.77C208.24 328.77 209.93 320.87 222.16 321.06C234.39 321.24 237.21 327.08 237.21 327.08C237.95 328.49 241.65 335.58 248.31 348.33L248.12 321.81L264.39 321.71C264.45 341.64 264.48 352.71 264.49 354.92C264.49 354.92 261.19 361.25 248.12 360.94C233.17 360.59 224.23 327.63 224.42 335.82C224.45 337.46 224.64 345.64 224.98 360.37L208.05 359.81Z" id="agwjza57V"></path><path d="M269.75 321.62L319.23 321.62L319.8 330.65L303.62 330.65L303.81 360.19L286.12 360.19L285.75 330.65L269.94 330.46L269.75 321.62Z" id="e2gWIl0SAR"></path><path d="M392.79 360.37L392.98 321.81C421.09 321.69 436.7 321.63 439.82 321.62C439.82 321.62 447.78 322.19 448.1 333.1C448.48 345.89 431.55 345.51 431.55 345.51C432.65 346.49 438.17 351.38 448.1 360.19L427.22 360C417.4 351.65 411.94 347 410.85 346.08C410.85 346.08 407.65 339.12 414.8 338.55C421.95 337.99 428.91 337.8 428.91 337.8C428.91 337.8 431.17 337.23 430.98 334.22C430.79 331.21 427.78 330.27 427.78 330.27C426.58 330.29 420.56 330.35 409.72 330.46L410.29 360.75L392.79 360.37Z" id="a8bmHjIg1k"></path><path d="M506.42 321.81C481.81 321.81 468.14 321.81 465.41 321.81C465.41 321.81 456.34 323.67 456 328.77C455.7 333.46 456.38 354.73 456.38 354.73C456.38 354.73 458.83 360.56 467.1 360.75C475.38 360.94 506.8 360 506.8 360C506.81 359.46 506.87 356.76 506.99 351.91C489.38 351.91 479.59 351.91 477.64 351.91C477.64 351.91 473.48 351.85 473.31 345.7C475.52 345.66 486.56 345.47 506.42 345.14L506.61 337.05L472.94 336.86C472.9 334.42 472.88 333.07 472.88 332.8C472.88 332.8 473.27 330.46 477.26 330.46C479.23 330.46 489.08 330.46 506.8 330.46L506.42 321.81Z" id="a34Cs7Xcg"></path><path d="M563.69 321.84C539.4 321.96 525.91 322.03 523.21 322.04C521.69 322.06 514.61 324.4 514.56 327.88C514.52 331.02 511.5 344.76 524.86 345.14C538.22 345.51 544.61 345.42 544.61 345.42C544.61 345.42 547.86 345.75 547.48 348.38C547.11 351.02 544.05 351.44 544.05 351.44C542.1 351.43 532.38 351.4 514.89 351.34L514.7 360.37C538.01 360.29 550.96 360.24 553.55 360.23C556.42 360.19 562.5 358.8 564.04 355.15C564.93 353.03 564.46 345.43 564.27 341.8C563.54 338.38 558.75 337.48 555.43 336.91C550.29 336.01 535.77 336.48 535.77 336.48C535.77 336.48 532.57 337.05 532.2 334.98C531.82 332.91 531.82 330.46 533.89 330.46C535.96 330.46 563.61 330.27 563.61 330.27C563.62 329.15 563.65 326.34 563.69 321.84Z" id="biU8DfNYe"></path><path d="M356.07 320.91L356.79 320.97L357.49 321.05L358.16 321.15L358.81 321.26L359.42 321.4L360.02 321.54L360.58 321.71L361.13 321.88L361.65 322.07L362.14 322.26L362.61 322.47L363.06 322.68L363.48 322.9L363.88 323.12L364.26 323.35L364.62 323.57L364.96 323.8L365.27 324.03L365.56 324.26L365.84 324.48L366.09 324.7L366.32 324.91L366.54 325.11L366.73 325.31L366.91 325.5L367.06 325.67L367.2 325.83L367.32 325.98L367.43 326.11L367.51 326.23L367.58 326.33L367.64 326.41L367.68 326.46L367.7 326.5L367.71 326.51L388.4 360.37L369.97 360.37L365.63 352.54L342.34 352.74L337.61 360.75L319.55 360L341.74 326.51L341.95 326.41L342.14 326.3L342.33 326.17L342.51 326.04L342.69 325.89L342.87 325.73L343.05 325.56L343.22 325.38L343.4 325.2L343.58 325.01L343.77 324.81L343.96 324.61L344.16 324.41L344.36 324.2L344.58 323.99L344.81 323.79L345.05 323.58L345.3 323.37L345.57 323.16L345.85 322.96L346.16 322.76L346.48 322.57L346.82 322.38L347.19 322.2L347.57 322.02L347.99 321.86L348.42 321.7L348.89 321.55L349.39 321.42L349.91 321.3L350.47 321.19L351.05 321.09L351.68 321.02L352.34 320.95L353.03 320.91L353.76 320.88L354.54 320.87L355.32 320.88L356.07 320.91ZM360.09 343.77L353.38 332.86L347.59 343.77L360.09 343.77Z" id="agYqPyZqp"></path></defs><g><g><use xlink:href="#a2kg3ZKaC" opacity="1" fill="#000000" fill-opacity="1"></use><g><use xlink:href="#a2kg3ZKaC" opacity="1" fill-opacity="0" stroke="#000000" stroke-width="1" stroke-opacity="1"></use></g></g><g><use xlink:href="#a9rUiy9PHg" opacity="1" fill="#c72027" fill-opacity="1"></use><g><use xlink:href="#a9rUiy9PHg" opacity="1" fill-opacity="0" stroke="#000000" stroke-width="1" stroke-opacity="0"></use></g></g><g><g><use xlink:href="#bwDQEpHG9" opacity="1" fill="#c72027" fill-opacity="1"></use><g><use xlink:href="#bwDQEpHG9" opacity="1" fill-opacity="0" stroke="#000000" stroke-width="1" stroke-opacity="0"></use></g></g><g><use xlink:href="#agwjza57V" opacity="1" fill="#c72027" fill-opacity="1"></use><g><use xlink:href="#agwjza57V" opacity="1" fill-opacity="0" stroke="#000000" stroke-width="1" stroke-opacity="0"></use></g></g><g><use xlink:href="#e2gWIl0SAR" opacity="1" fill="#c72027" fill-opacity="1"></use><g><use xlink:href="#e2gWIl0SAR" opacity="1" fill-opacity="0" stroke="#000000" stroke-width="1" stroke-opacity="0"></use></g></g><g><use xlink:href="#a8bmHjIg1k" opacity="1" fill="#c72027" fill-opacity="1"></use><g><use xlink:href="#a8bmHjIg1k" opacity="1" fill-opacity="0" stroke="#000000" stroke-width="1" stroke-opacity="0"></use></g></g><g><use xlink:href="#a34Cs7Xcg" opacity="1" fill="#c72027" fill-opacity="1"></use><g><use xlink:href="#a34Cs7Xcg" opacity="1" fill-opacity="0" stroke="#000000" stroke-width="1" stroke-opacity="0"></use></g></g><g><use xlink:href="#biU8DfNYe" opacity="1" fill="#c72027" fill-opacity="1"></use><g><use xlink:href="#biU8DfNYe" opacity="1" fill-opacity="0" stroke="#000000" stroke-width="1" stroke-opacity="0"></use></g></g><g><use xlink:href="#agYqPyZqp" opacity="1" fill="#c72027" fill-opacity="1"></use><g><use xlink:href="#agYqPyZqp" opacity="1" fill-opacity="0" stroke="#000000" stroke-width="1" stroke-opacity="0"></use></g></g></g></g></svg>
