<?xml version="1.0" encoding="UTF-8" standalone="no"?>
<svg
   xmlns:dc="http://purl.org/dc/elements/1.1/"
   xmlns:cc="http://creativecommons.org/ns#"
   xmlns:rdf="http://www.w3.org/1999/02/22-rdf-syntax-ns#"
   xmlns:svg="http://www.w3.org/2000/svg"
   xmlns="http://www.w3.org/2000/svg"
   viewBox="112 172 831 471"
   height="816"
   width="1056"
   xml:space="preserve"
   id="svg2"
   version="1.1"><metadata
     id="metadata8"><rdf:RDF><cc:Work
         rdf:about=""><dc:format>image/svg+xml</dc:format><dc:type
           rdf:resource="http://purl.org/dc/dcmitype/StillImage" /></cc:Work></rdf:RDF></metadata><defs
     id="defs6"><clipPath
       id="clipPath22"
       clipPathUnits="userSpaceOnUse"><path
         id="path20"
         d="M 0,612 H 792 V 0 H 0 Z" /></clipPath><radialGradient
       id="radialGradient70"
       spreadMethod="pad"
       gradientTransform="matrix(-73.337761,-203.08919,-203.08919,73.337761,302.12857,357.38531)"
       gradientUnits="userSpaceOnUse"
       r="1"
       cy="0"
       cx="0"
       fy="0"
       fx="0"><stop
         id="stop64"
         offset="0"
         style="stop-opacity:1;stop-color:#f5622e" /><stop
         id="stop66"
         offset="0.899683"
         style="stop-opacity:1;stop-color:#15284f" /><stop
         id="stop68"
         offset="1"
         style="stop-opacity:1;stop-color:#15284f" /></radialGradient><clipPath
       id="clipPath80"
       clipPathUnits="userSpaceOnUse"><path
         id="path78"
         d="M 0,612 H 792 V 0 H 0 Z" /></clipPath></defs><g
     transform="matrix(1.3333333,0,0,-1.3333333,0,816)"
     id="g10"><g
       transform="translate(693,450.8662)"
       id="g12"><path
         id="path14"
         style="fill:#15284f;fill-opacity:1;fill-rule:nonzero;stroke:none"
         d="m 0,0 h -297.848 l -0.084,-18.708 h 279.224 v -205.081 h -324.019 l -8.404,-18.708 H 0 Z" /></g><g
       id="g16"><g
         clip-path="url(#clipPath22)"
         id="g18"><g
           transform="translate(117.708,227.0771)"
           id="g24"><path
             id="path26"
             style="fill:#15284f;fill-opacity:1;fill-rule:nonzero;stroke:none"
             d="m 0,0 v 205.081 h 157.025 l 12.748,18.708 H -18.708 V -18.708 h 98.514 c 1.438,6.397 2.882,12.624 4.335,18.708 z" /></g><g
           transform="translate(196.7617,361.6318)"
           id="g28"><path
             id="path30"
             style="fill:#15284f;fill-opacity:1;fill-rule:nonzero;stroke:none"
             d="m 0,0 v -25.925 h 41.384 v -19.52 H 0 v -38.104 h -26.079 v 103.07 h 73.24 L 47.161,0 Z" /></g><g
           transform="translate(492.1152,381.1523)"
           id="g32"><path
             id="path34"
             style="fill:#15284f;fill-opacity:1;fill-rule:nonzero;stroke:none"
             d="m 0,0 v -103.069 h -10.775 l -60.28,56.062 v -56.062 H -96.353 V 0 h 10.776 l 60.592,-55.284 V 0 Z" /></g><g
           transform="translate(572.2627,316.9678)"
           id="g36"><path
             id="path38"
             style="fill:#15284f;fill-opacity:1;fill-rule:nonzero;stroke:none"
             d="M 0,0 -7.496,-8.433 V -38.885 H -33.574 V 64.185 H -7.496 V 25.925 L 27.33,64.185 H 57.001 L 17.648,19.833 59.498,-38.885 H 27.643 Z" /></g><g
           transform="translate(303.3154,375.6729)"
           id="g40"><path
             id="path42"
             style="fill:#f5622e;fill-opacity:1;fill-rule:nonzero;stroke:none"
             d="M 0,0 C -0.146,8.974 6.818,15.994 15.619,16.138 24.593,16.285 31.78,9.495 31.927,0.521 32.073,-8.452 25.111,-15.47 16.138,-15.616 7.337,-15.76 0.146,-8.974 0,0" /></g><g
           transform="translate(261.8931,166.2881)"
           id="g44"><path
             id="path46"
             style="fill:#15284f;fill-opacity:1;fill-rule:nonzero;stroke:none"
             d="M 0,0 -0.004,-0.011 0.031,0.003 0.013,0.011 Z" /></g><g
           transform="translate(373.0464,372.4585)"
           id="g48"><path
             id="path50"
             style="fill:#15284f;fill-opacity:1;fill-rule:nonzero;stroke:none"
             d="M 0,0 C 2.115,8.586 4.147,17.192 6.106,25.813 L 6.096,25.81 Z" /></g></g></g><g
       id="g52"><g
         id="g54"><g
           id="g60"><g
             id="g62"><path
               id="path72"
               style="fill:url(#radialGradient70);stroke:none"
               d="m 379.097,398.376 -9.893,-3.543 -0.042,-0.017 -0.013,-0.043 -8.527,-30.205 c -2.439,-8.347 -4.753,-16.734 -7.295,-25.047 v 0 c -2.645,-8.284 -5.568,-16.476 -8.548,-24.644 v 0 c -6.009,-16.32 -12.533,-32.448 -19.499,-48.38 v 0 c -6.973,-15.928 -14.386,-31.668 -22.545,-47.015 v 0 c -4.049,-7.688 -8.446,-15.179 -12.959,-22.609 v 0 l -6.8,-11.132 c -2.257,-3.725 -4.488,-7.432 -7.084,-10.883 v 0 c -2.61,-3.35 -5.457,-6.867 -9.218,-8.577 v 0 c -1.835,-0.832 -4.013,-0.743 -5.413,0.652 v 0 c -1.405,1.331 -1.998,3.432 -2.186,5.506 v 0 c -0.387,4.218 0.364,8.505 1.019,12.807 v 0 c 0.602,4.317 1.197,8.602 1.943,12.882 v 0 c 2.902,17.115 8.408,32.806 13.616,49.361 v 0 c 5.22,16.555 11.561,32.742 18.077,48.858 v 0 l 19.911,48.221 0.213,0.515 -0.271,0.491 -14.194,24.478 -1.001,-2.263 c -8.853,-20.006 -17.038,-40.317 -24.355,-60.947 v 0 c -7.218,-20.664 -13.592,-41.62 -18.958,-62.848 v 0 c -5.241,-21.205 -10.092,-42.72 -11.117,-64.714 v 0 c -0.232,-5.486 -0.238,-11.032 0.555,-16.544 v 0 c 0.807,-5.418 2.434,-11.24 6.784,-15.274 v 0 c 2.163,-1.99 5.099,-3.21 8.044,-3.216 v 0 c 2.968,-0.073 5.777,0.898 8.271,2.193 v 0 c 5.032,2.656 9.01,6.659 12.682,10.741 v 0 c 14.334,16.748 24.977,36.1 34.756,55.617 v 0 c 9.757,19.578 18.535,39.628 26.537,59.97 v 0 c 8.041,20.337 15.079,41.046 21.489,61.946 v 0 l 8.596,31.636 7.578,31.889 0.051,0.211 z" /></g></g></g></g><g
       id="g74"><g
         clip-path="url(#clipPath80)"
         id="g76"><g
           transform="translate(364.1592,339.0039)"
           id="g82"><path
             id="path84"
             style="fill:#15284f;fill-opacity:1;fill-rule:nonzero;stroke:none"
             d="M 0,0 C 2.652,8.789 4.942,17.666 7.181,26.548 Z" /></g><g
           transform="translate(284.8701,355.2075)"
           id="g86"><path
             id="path88"
             style="fill:#15284f;fill-opacity:1;fill-rule:nonzero;stroke:none"
             d="m 0,0 c 10.777,25.247 23.294,49.765 38.389,72.505 1.139,1.717 2.246,3.483 3.477,5.136 2.665,3.576 5.308,7.202 8.474,10.375 1.585,1.574 3.321,3.026 5.297,4.102 1.005,0.472 2.069,0.957 3.212,0.977 0.572,0.099 1.125,-0.109 1.679,-0.238 0.493,-0.291 1.007,-0.559 1.36,-1.019 1.536,-1.727 1.904,-4.086 2.254,-6.258 0.299,-2.222 0.339,-4.465 0.362,-6.697 C 64.603,74.415 64.349,69.941 63.899,65.497 63.088,56.581 60.972,47.872 59.397,39.085 56.024,21.528 51.095,4.317 45.674,-12.702 34.684,-45.821 20.454,-77.801 7.131,-110.035 c -0.017,-0.042 -0.034,-0.084 -0.052,-0.126 l 7.469,-14.377 c 3.899,9.883 28.284,66.896 31.912,76.889 10.885,29.981 20.327,60.489 26.972,91.689 2.19,10.43 3.858,20.986 4.498,31.621 0.308,5.312 0.383,10.653 -0.121,15.937 -0.538,5.242 -1.695,10.602 -4.758,14.906 -3.032,4.256 -8.441,6.741 -13.657,5.875 -5.242,-0.706 -9.849,-3.774 -13.774,-7.271 C 37.709,97.975 31.756,88.978 25.457,80.429 13.526,62.736 3.985,43.572 -5.077,24.271 -14.146,4.958 -22.183,-14.834 -29.328,-34.939 -43.64,-75.086 -54.253,-116.453 -63.316,-158.078 l 16.819,5.847 c 2.568,11.912 4.977,23.855 7.676,35.741 1.791,7.31 3.78,14.566 5.891,21.787 l 0.05,0.179 c 3.902,13.979 8.118,27.873 12.8,41.614 C -14.031,-35.156 -7.429,-17.405 0,0" /></g><g
           transform="translate(379.0972,398.376)"
           id="g90"><path
             id="path92"
             style="fill:#15284f;fill-opacity:1;fill-rule:nonzero;stroke:none"
             d="m 0,0 -9.893,-3.543 -0.043,-0.016 -0.012,-0.044 -8.528,-30.205 c -2.439,-8.347 -4.753,-16.734 -7.295,-25.047 -2.644,-8.284 -5.567,-16.476 -8.547,-24.645 -6.009,-16.319 -12.534,-32.447 -19.499,-48.379 -6.973,-15.928 -14.386,-31.667 -22.546,-47.015 -4.049,-7.688 -8.445,-15.179 -12.959,-22.609 l -6.799,-11.132 c -2.257,-3.725 -4.488,-7.432 -7.084,-10.883 -0.861,-1.105 -1.753,-2.223 -2.691,-3.294 -2.006,-6.48 -3.92,-12.992 -6.686,-19.192 -1.204,-2.7 -2.601,-5.285 -4.102,-7.808 1.833,0.372 3.587,1.039 5.199,1.875 5.032,2.656 9.01,6.659 12.682,10.742 14.334,16.747 24.977,36.099 34.757,55.616 9.756,19.578 18.534,39.628 26.536,59.971 8.041,20.336 15.079,41.045 21.489,61.944 l 8.596,31.637 7.578,31.889 0.05,0.211 z" /></g></g></g></g></svg>
