<?xml version="1.0" encoding="UTF-8" standalone="no"?>
<!-- Generator: Adobe Illustrator 10.0, SVG Export Plug-In . SVG Version: 3.0.0 Build 76)  -->
<svg xmlns="http://www.w3.org/2000/svg" viewBox="40 36 466 422"><g
     id="g4395"
     transform="translate(47.523503,-28.277536)"><path
       style="fill:#6595c5"
       id="path3473"
       d="m 455.47,358.94 -217.93,-23.856 -75.629,105.76 -37.95,-124.35 -123.96,-39.24 106.55,-74.518 -0.982,-130.02 103.8,78.308 123.35,-41.112 -42.4,122.92 165.15,126.11 z" /><path
       style="fill:#6595c5;fill-opacity:1;stroke:#ffffff"
       id="path3475"
       d="m 338.73915,92.318212 -14.99,-2.3 -10.393,11.043998 -2.445,-14.965998 -13.714,-6.471 13.479,-6.95 1.917,-15.043 10.774,10.671 14.899,-2.826 -6.819,13.545 7.28,13.296 z" /><path
       style="fill:#6498c0;stroke:#ffffff"
       id="path3477"
       d="m 361.20707,130.62555 -5.23,-9.195 -10.541,-0.904 7.13,-7.816 -2.398,-10.303 9.637,4.364 9.059,-5.464 -1.173,10.513 7.994,6.926 -10.36,2.134 -4.12,9.745 z" /><g
       style="fill:#ffffff;fill-opacity:1;stroke:#6595c5;stroke-opacity:1"
       transform="matrix(-2.7910889,0.3289335,-0.3289335,-2.7910889,875.76418,853.42187)"
       id="g3577"><path
         style="fill:#ffffff;fill-opacity:1;stroke:#6595c5;stroke-opacity:1"
         d="m 201.22352,213.06926 c 0.28993,0.44836 0.34293,1.03512 0.0782,1.7104 -0.80638,2.05785 -2.73681,3.09409 -4.41504,2.39112 -1.99258,-0.83522 -2.10848,-2.45181 -0.45166,-3.83978 0.11847,-0.0985 0.25182,-0.19499 0.38545,-0.29317 0.13392,-0.0971 0.2681,-0.19584 0.42269,-0.28913 1.61453,-0.97122 3.34247,-0.66576 3.98036,0.32055 z m -5.26327,-2.87877 c 0.42743,0.79982 -0.0762,2.1376 -1.37538,2.90734 -1.76531,1.04582 -3.35948,0.0266 -3.34444,-1.48678 0.004,-1.16429 1.17037,-2.14015 1.55062,-2.31357 1.01099,-0.46027 2.66066,-0.0588 3.1692,0.89301 z m -4.90865,-1.6038 c 0.38622,0.59827 0.0773,0.97128 -1.01774,1.57804 -2.26706,1.25628 -4.33262,-0.98591 -2.31933,-2.51652 0.90035,-0.6845 1.82994,-0.59968 2.72428,0.24574 0.28064,0.26547 0.48392,0.4932 0.61252,0.69287 z m -5.0426,-1.95239 c 0.83494,1.06259 0.52215,1.43308 -1.84154,2.14013 -1.02968,0.30788 -1.56013,0.004 -1.63847,-0.91068 -0.0538,-0.62628 0.27076,-1.14151 0.75594,-1.47562 0.80872,-0.55693 2.06381,-0.59481 2.72428,0.24575 z m 4.56093,11.29916 c 0.71882,0.90256 1.33451,1.80629 1.78592,2.66458 2.22225,4.22643 2.28252,5.83412 0.33913,9.13811 -2.66442,4.53008 -8.34995,5.99376 -14.55681,3.76208 -13.45691,-4.83782 -20.2989,-2.38103 -24.76348,8.88282 -1.83797,4.63698 -8.29322,9.95378 -12.58138,10.3692 -5.40097,0.52331 -9.23048,-3.88741 -8.18525,-9.41588 0.98018,-5.18538 8.00066,-13.32137 17.32899,-20.60769 0.77744,-0.60721 1.56886,-1.21354 2.37702,-1.8071 2.42422,-1.78065 4.97749,-3.48451 7.58644,-5.05957 7.87984,-4.757 14.60636,-6.90587 19.41434,-6.19969 3.00095,0.44065 8.1403,4.3617 11.25499,8.27275 z m 17.57163,1.51247 c 1.43099,1.82137 -0.0816,3.08796 -1.14195,4.31974 -1.86149,2.16247 -4.42931,4.52451 -7.15695,4.3756 -3.05138,-0.16671 -4.61784,-2.15227 -3.99665,-5.49385 0.31176,-1.67774 0.87612,-2.09422 2.03345,-2.95151 0.38567,-0.28586 0.95722,-0.61914 1.52448,-0.92685 3.9236,-2.12855 6.47499,-2.20249 8.73762,0.67687 z"
         id="path3802-3-8-9-6-7-1-1-7"
         /><path
         style="fill:#ffffff;fill-opacity:1;stroke:#6595c5;stroke-opacity:1"
         d="m 244.78603,247.79154 c -0.1958,-0.49668 -0.64214,-0.88113 -1.34529,-1.05902 -2.14282,-0.54165 -4.10848,0.42954 -4.51382,2.19886 -0.48079,2.10644 0.7668,3.14167 2.85979,2.60208 0.14927,-0.0394 0.30558,-0.0905 0.46265,-0.14274 0.15695,-0.0522 0.31575,-0.1036 0.48115,-0.17548 1.72942,-0.74773 2.48647,-2.33092 2.05554,-3.4235 z m -0.72163,5.95561 c -0.40171,-0.8132 -1.7827,-1.18234 -3.16473,-0.57351 -1.87779,0.82712 -1.97671,2.71654 -0.73721,3.58503 0.94882,0.67461 2.42155,0.29364 2.78378,0.0853 0.96308,-0.55369 1.59618,-2.12944 1.11816,-3.09679 z m -1.55231,4.92515 c -0.26181,-0.66233 -0.74511,-0.62796 -1.87558,-0.0908 -2.34101,1.11255 -1.71965,4.09717 0.69677,3.35066 1.08052,-0.33388 1.55243,-1.13928 1.38555,-2.35844 -0.0525,-0.38295 -0.11956,-0.68067 -0.20674,-0.90146 z m -1.34657,5.23697 c -0.37822,-1.2974 -0.86155,-1.2586 -2.81204,0.25193 -0.84963,0.65851 -0.91164,1.26625 -0.21352,1.86243 0.47823,0.40793 1.08599,0.44418 1.64008,0.24396 0.92342,-0.33362 1.68479,-1.33232 1.38555,-2.35843 z m -6.53462,-10.28454 c -0.31566,-1.10977 -0.69228,-2.13633 -1.1277,-3.00308 -2.14376,-4.26672 -3.41603,-5.25138 -7.234,-5.59364 -5.23448,-0.46933 -9.73347,3.30247 -11.53072,9.64875 -3.89686,13.7589 -9.87639,17.89336 -21.63474,14.9692 -4.84042,-1.20376 -12.92071,0.95165 -15.7542,4.19715 -3.5686,4.08763 -2.21011,9.76872 2.89395,12.13592 4.78743,2.22049 15.48938,1.24599 26.84338,-2.09971 0.94618,-0.27895 1.89988,-0.56982 2.85284,-0.88153 2.85874,-0.93522 5.73033,-2.02022 8.52941,-3.22517 8.45427,-3.63988 14.11622,-7.85942 16.34003,-12.18045 1.38797,-2.69694 1.18998,-9.15834 -0.17797,-13.96717 z m 8.99558,-15.17 c -0.64838,-2.22374 -2.55864,-1.73065 -4.17743,-1.58507 -2.84186,0.25499 -6.25697,0.96887 -7.72324,3.27393 -1.64028,2.57845 -0.93707,5.00779 2.14188,6.44728 1.54577,0.72283 2.21295,0.50614 3.58367,0.0638 0.45681,-0.14726 1.06051,-0.41819 1.64083,-0.70029 4.01435,-1.95216 5.55927,-3.98389 4.5342,-7.49976 z"
         id="path4219-0-8-8-3-4-0-8-9"
         /></g><text
       id="text4391"
       y="426.91031"
       x="19.388571"
       style="font-style:normal;font-variant:normal;font-weight:normal;font-stretch:normal;font-size:125px;line-height:125%;font-family:cmr10;-inkscape-font-specification:'cmr10, Normal';text-align:start;letter-spacing:0px;word-spacing:0px;writing-mode:lr-tb;text-anchor:start;fill:#6595c5;fill-opacity:1;stroke:#ffffff;stroke-width:1.80892706px;stroke-linecap:butt;stroke-linejoin:miter;stroke-opacity:1"
      ><tspan
         style="font-style:normal;font-variant:normal;font-weight:normal;font-stretch:normal;font-size:125px;line-height:125%;font-family:cmr10;-inkscape-font-specification:'cmr10, Normal';text-align:start;writing-mode:lr-tb;text-anchor:start;fill:#6595c5;fill-opacity:1;stroke:#ffffff;stroke-width:1.80892706px;stroke-opacity:1"
         y="426.91031"
         x="19.388571"
         id="tspan4393"
        >feets</tspan></text>
</g></svg>
